<svg width="285" height="288" viewBox="0 0 285 288" fill="none" xmlns="http://www.w3.org/2000/svg">
<g clip-path="url(#clip0_1_3)">
<path d="M285 144C285 223.53 221.2 288 142.5 288C63.7994 288 0 223.53 0 144C0 64.4711 63.7994 0 142.5 0C221.2 0 285 64.4711 285 144Z" fill="#298F61"/>
<path d="M44.84 180.152C46.7173 180.152 48.68 179.811 50.728 179.128C52.8613 178.445 54.7813 177.421 56.488 176.056C58.1947 174.776 59.6027 173.197 60.712 171.32C61.8213 169.443 62.4187 167.352 62.504 165.048C62.504 162.232 61.864 159.715 60.584 157.496C59.304 155.192 57.6827 153.101 55.72 151.224C53.7573 149.432 51.496 147.853 48.936 146.488C46.4613 145.037 43.9867 143.672 41.512 142.392C38.0987 140.856 35.0267 139.32 32.296 137.784C29.6507 136.248 27.3893 134.584 25.512 132.792C23.72 130.915 22.312 128.781 21.288 126.392C20.3493 123.917 19.88 120.931 19.88 117.432C19.88 109.923 22.312 103.693 27.176 98.744C32.04 93.7947 39.08 91.32 48.296 91.32C51.7093 91.4907 54.8667 91.96 57.768 92.728C60.7547 93.496 63.7413 94.4773 66.728 95.672C67.0693 95.8427 67.368 96.056 67.624 96.312C67.88 96.4827 68.0507 96.7813 68.136 97.208C68.648 100.365 68.9893 103.224 69.16 105.784C69.416 108.259 69.6293 111.032 69.8 114.104C69.8 114.872 69.672 115.384 69.416 115.64C69.2453 115.811 68.8187 115.939 68.136 116.024C67.368 116.195 66.856 116.195 66.6 116.024C66.4293 115.768 66.3013 115.299 66.216 114.616C65.7893 112.739 65.064 110.648 64.04 108.344C63.1013 105.955 61.992 103.949 60.712 102.328C59.176 100.536 57.128 99.2987 54.568 98.616C52.0933 97.9333 49.448 97.592 46.632 97.592C40.744 97.592 36.392 98.9147 33.576 101.56C30.8453 104.205 29.48 107.192 29.48 110.52C29.48 113.251 29.992 115.597 31.016 117.56C32.1253 119.523 33.6187 121.272 35.496 122.808C37.3733 124.344 39.5493 125.752 42.024 127.032C44.584 128.227 47.3573 129.507 50.344 130.872C52.904 132.152 55.5067 133.56 58.152 135.096C60.7973 136.632 63.144 138.381 65.192 140.344C67.3253 142.392 69.032 144.781 70.312 147.512C71.6773 150.157 72.36 153.229 72.36 156.728C72.36 165.944 69.672 173.283 64.296 178.744C59.0053 184.205 51.7947 186.936 42.664 186.936C40.7013 186.936 38.6533 186.723 36.52 186.296C34.472 185.869 32.424 185.315 30.376 184.632C28.2427 183.949 26.2373 183.224 24.36 182.456C22.568 181.688 20.9893 180.92 19.624 180.152C19.2827 179.981 18.984 179.725 18.728 179.384C18.472 179.128 18.344 178.829 18.344 178.488C17.832 175.501 17.4053 172.344 17.064 169.016C16.7227 165.688 16.552 162.445 16.552 159.288C16.552 158.605 16.5947 158.093 16.68 157.752C16.8507 157.411 17.2773 157.197 17.96 157.112C18.6427 157.112 19.112 157.155 19.368 157.24C19.7093 157.325 19.9653 157.709 20.136 158.392C20.648 160.867 21.3307 163.341 22.184 165.816C23.0373 168.291 24.0187 170.595 25.128 172.728C26.0667 174.605 28.328 176.312 31.912 177.848C35.496 179.384 39.8053 180.152 44.84 180.152ZM116.421 186.552C112.069 186.552 107.93 185.869 104.005 184.504C100.165 183.224 96.7943 181.261 93.893 178.616C90.9917 175.885 88.6877 172.472 86.981 168.376C85.3597 164.28 84.549 159.416 84.549 153.784C84.549 148.664 85.3597 144.099 86.981 140.088C88.6023 136.077 90.821 132.707 93.637 129.976C96.5383 127.245 99.909 125.197 103.749 123.832C107.674 122.381 111.898 121.656 116.421 121.656C120.858 121.656 124.997 122.381 128.837 123.832C132.762 125.197 136.176 127.245 139.077 129.976C141.893 132.707 144.112 136.077 145.733 140.088C147.44 144.099 148.293 148.664 148.293 153.784C148.293 159.416 147.44 164.28 145.733 168.376C144.026 172.472 141.722 175.885 138.821 178.616C135.92 181.261 132.506 183.224 128.581 184.504C124.741 185.869 120.688 186.552 116.421 186.552ZM116.421 127.288C110.021 127.288 105.029 129.507 101.445 133.944C97.9463 138.381 96.197 144.952 96.197 153.656C96.197 157.581 96.6663 161.208 97.605 164.536C98.5437 167.864 99.909 170.765 101.701 173.24C103.493 175.629 105.626 177.507 108.101 178.872C110.576 180.237 113.349 180.92 116.421 180.92C119.408 180.92 122.138 180.237 124.613 178.872C127.088 177.507 129.221 175.629 131.013 173.24C132.805 170.765 134.17 167.864 135.109 164.536C136.133 161.208 136.645 157.581 136.645 153.656C136.645 144.952 134.853 138.381 131.269 133.944C127.685 129.507 122.736 127.288 116.421 127.288ZM172.652 138.168C172.652 137.4 172.439 136.76 172.012 136.248C171.671 135.651 171.201 135.181 170.604 134.84C170.007 134.584 169.281 134.371 168.428 134.2C167.66 133.944 166.892 133.688 166.124 133.432C165.441 133.432 164.887 133.347 164.46 133.176C164.119 132.92 163.948 132.408 163.948 131.64C163.948 131.299 163.948 131.043 163.948 130.872C164.033 130.616 164.161 130.403 164.332 130.232C164.503 130.147 164.673 130.061 164.844 129.976C165.1 129.891 165.441 129.763 165.868 129.592C168.343 129.08 170.689 128.397 172.908 127.544C175.212 126.691 177.473 125.624 179.692 124.344C180.46 123.832 181.185 123.704 181.868 123.96C182.551 124.216 182.849 124.856 182.764 125.88C182.508 127.928 182.38 130.275 182.38 132.92C182.38 135.565 182.38 137.528 182.38 138.808V174.648C182.38 176.696 182.551 178.189 182.892 179.128C183.319 180.067 184.044 180.664 185.068 180.92C185.836 181.176 186.775 181.389 187.884 181.56C188.993 181.816 190.017 181.944 190.956 181.944C191.639 182.029 192.151 182.2 192.492 182.456C192.833 182.797 193.004 183.395 193.004 184.248C193.004 185.101 192.748 185.613 192.236 185.784C191.809 186.04 191.297 186.168 190.7 186.168C190.444 186.168 189.676 186.168 188.396 186.168C187.201 186.168 185.836 186.125 184.3 186.04C182.849 186.04 181.441 185.997 180.076 185.912C178.796 185.912 177.943 185.912 177.516 185.912C177.004 185.912 176.065 185.912 174.7 185.912C173.335 185.997 171.927 186.04 170.476 186.04C169.025 186.125 167.703 186.168 166.508 186.168C165.313 186.168 164.588 186.168 164.332 186.168C163.649 186.168 163.095 186.04 162.668 185.784C162.241 185.613 162.028 185.101 162.028 184.248C162.028 183.395 162.156 182.797 162.412 182.456C162.753 182.2 163.308 182.029 164.076 181.944C164.929 181.944 165.911 181.816 167.02 181.56C168.129 181.389 169.111 181.176 169.964 180.92C170.903 180.664 171.585 180.067 172.012 179.128C172.439 178.189 172.652 176.696 172.652 174.648V138.168ZM185.196 107.32C185.196 109.624 184.385 111.544 182.764 113.08C181.143 114.616 179.137 115.384 176.748 115.384C174.273 115.384 172.225 114.616 170.604 113.08C168.983 111.544 168.172 109.624 168.172 107.32C168.172 105.187 168.983 103.352 170.604 101.816C172.225 100.195 174.273 99.384 176.748 99.384C179.137 99.384 181.143 100.195 182.764 101.816C184.385 103.352 185.196 105.187 185.196 107.32ZM221.96 130.744C221.96 131.427 222.131 131.811 222.472 131.896C222.813 131.896 223.155 131.725 223.496 131.384C225.544 129.08 228.147 126.947 231.304 124.984C234.461 122.936 238.088 121.912 242.184 121.912C248.499 121.912 253.533 123.619 257.288 127.032C261.043 130.445 262.92 135.352 262.92 141.752V175.288C262.92 176.909 263.091 178.189 263.432 179.128C263.773 180.067 264.413 180.664 265.352 180.92C266.12 181.261 266.931 181.517 267.784 181.688C268.723 181.859 269.661 181.944 270.6 181.944C271.368 182.029 271.88 182.2 272.136 182.456C272.477 182.797 272.648 183.395 272.648 184.248C272.648 185.101 272.392 185.613 271.88 185.784C271.453 186.04 270.941 186.168 270.344 186.168C270.088 186.168 269.363 186.168 268.168 186.168C267.059 186.168 265.821 186.125 264.456 186.04C263.176 186.04 261.896 185.997 260.616 185.912C259.421 185.912 258.611 185.912 258.184 185.912C257.672 185.912 256.733 185.912 255.368 185.912C254.088 185.997 252.765 186.04 251.4 186.04C249.949 186.125 248.627 186.168 247.432 186.168C246.323 186.168 245.64 186.168 245.384 186.168C244.701 186.168 244.147 186.04 243.72 185.784C243.379 185.613 243.208 185.101 243.208 184.248C243.208 183.395 243.336 182.797 243.592 182.456C243.848 182.2 244.36 182.029 245.128 181.944C246.152 181.944 247.048 181.859 247.816 181.688C248.669 181.603 249.565 181.389 250.504 181.048C251.528 180.792 252.253 180.195 252.68 179.256C253.107 178.317 253.32 177.037 253.32 175.416V145.08C253.32 139.533 252.04 135.523 249.48 133.048C246.92 130.573 243.08 129.336 237.96 129.336C234.376 129.336 231.219 130.36 228.488 132.408C225.757 134.371 223.624 136.888 222.088 139.96C221.832 140.472 221.661 140.984 221.576 141.496C221.576 142.008 221.576 142.605 221.576 143.288V175.416C221.576 177.037 221.789 178.275 222.216 179.128C222.643 180.067 223.368 180.664 224.392 180.92C225.245 181.261 226.056 181.517 226.824 181.688C227.677 181.859 228.659 181.944 229.768 181.944C230.451 182.029 230.92 182.2 231.176 182.456C231.517 182.797 231.688 183.395 231.688 184.248C231.688 185.101 231.475 185.613 231.048 185.784C230.621 186.04 230.109 186.168 229.512 186.168C229.171 186.168 228.403 186.168 227.208 186.168C226.013 186.168 224.733 186.125 223.368 186.04C221.917 186.04 220.552 185.997 219.272 185.912C217.992 185.912 217.096 185.912 216.584 185.912C216.072 185.912 215.176 185.912 213.896 185.912C212.701 185.997 211.421 186.04 210.056 186.04C208.691 186.125 207.411 186.168 206.216 186.168C205.107 186.168 204.424 186.168 204.168 186.168C203.485 186.168 202.931 186.04 202.504 185.784C202.077 185.613 201.864 185.101 201.864 184.248C201.864 183.395 201.992 182.797 202.248 182.456C202.589 182.2 203.144 182.029 203.912 181.944C204.765 181.944 205.704 181.859 206.728 181.688C207.752 181.517 208.691 181.261 209.544 180.92C210.397 180.664 211.037 180.067 211.464 179.128C211.891 178.189 212.104 176.909 212.104 175.288V137.4C212.104 135.779 211.421 134.712 210.056 134.2C208.776 133.603 207.325 133.133 205.704 132.792C205.363 132.792 205.064 132.749 204.808 132.664C204.552 132.579 204.296 132.493 204.04 132.408C203.869 132.237 203.741 132.067 203.656 131.896C203.571 131.725 203.528 131.427 203.528 131C203.528 130.659 203.528 130.36 203.528 130.104C203.613 129.848 203.741 129.635 203.912 129.464C204.083 129.379 204.253 129.293 204.424 129.208C204.68 129.123 205.021 128.995 205.448 128.824C207.923 128.312 210.269 127.672 212.488 126.904C214.792 126.051 217.053 124.984 219.272 123.704C220.04 123.192 220.765 123.064 221.448 123.32C222.131 123.576 222.429 124.216 222.344 125.24C222.173 126.264 222.045 127.245 221.96 128.184C221.96 129.123 221.96 129.976 221.96 130.744Z" fill="white"/>
</g>
<defs>
<clipPath id="clip0_1_3">
<rect width="285" height="288" fill="white"/>
</clipPath>
</defs>
</svg>
