<svg width="285" height="288" viewBox="0 0 285 288" fill="none" xmlns="http://www.w3.org/2000/svg">
<g clip-path="url(#clip0_1_3)">
<path d="M285 144C285 223.53 221.2 288 142.5 288C63.7994 288 0 223.53 0 144C0 64.4711 63.7994 0 142.5 0C221.2 0 285 64.4711 285 144Z" fill="#298F61"/>
<path d="M68.88 171.864C70.288 171.864 71.76 171.608 73.296 171.096C74.896 170.584 76.336 169.816 77.616 168.792C78.896 167.832 79.952 166.648 80.784 165.24C81.616 163.832 82.064 162.264 82.128 160.536C82.128 158.424 81.648 156.536 80.688 154.872C79.728 153.144 78.512 151.576 77.04 150.168C75.568 148.824 73.872 147.64 71.952 146.616C70.096 145.528 68.24 144.504 66.384 143.544C63.824 142.392 61.52 141.24 59.472 140.088C57.488 138.936 55.792 137.688 54.384 136.344C53.04 134.936 51.984 133.336 51.216 131.544C50.512 129.688 50.16 127.448 50.16 124.824C50.16 119.192 51.984 114.52 55.632 110.808C59.28 107.096 64.56 105.24 71.472 105.24C74.032 105.368 76.4 105.72 78.576 106.296C80.816 106.872 83.056 107.608 85.296 108.504C85.552 108.632 85.776 108.792 85.968 108.984C86.16 109.112 86.288 109.336 86.352 109.656C86.736 112.024 86.992 114.168 87.12 116.088C87.312 117.944 87.472 120.024 87.6 122.328C87.6 122.904 87.504 123.288 87.312 123.48C87.184 123.608 86.864 123.704 86.352 123.768C85.776 123.896 85.392 123.896 85.2 123.768C85.072 123.576 84.976 123.224 84.912 122.712C84.592 121.304 84.048 119.736 83.28 118.008C82.576 116.216 81.744 114.712 80.784 113.496C79.632 112.152 78.096 111.224 76.176 110.712C74.32 110.2 72.336 109.944 70.224 109.944C65.808 109.944 62.544 110.936 60.432 112.92C58.384 114.904 57.36 117.144 57.36 119.64C57.36 121.688 57.744 123.448 58.512 124.92C59.344 126.392 60.464 127.704 61.872 128.856C63.28 130.008 64.912 131.064 66.768 132.024C68.688 132.92 70.768 133.88 73.008 134.904C74.928 135.864 76.88 136.92 78.864 138.072C80.848 139.224 82.608 140.536 84.144 142.008C85.744 143.544 87.024 145.336 87.984 147.384C89.008 149.368 89.52 151.672 89.52 154.296C89.52 161.208 87.504 166.712 83.472 170.808C79.504 174.904 74.096 176.952 67.248 176.952C65.776 176.952 64.24 176.792 62.64 176.472C61.104 176.152 59.568 175.736 58.032 175.224C56.432 174.712 54.928 174.168 53.52 173.592C52.176 173.016 50.992 172.44 49.968 171.864C49.712 171.736 49.488 171.544 49.296 171.288C49.104 171.096 49.008 170.872 49.008 170.616C48.624 168.376 48.304 166.008 48.048 163.512C47.792 161.016 47.664 158.584 47.664 156.216C47.664 155.704 47.696 155.32 47.76 155.064C47.888 154.808 48.208 154.648 48.72 154.584C49.232 154.584 49.584 154.616 49.776 154.68C50.032 154.744 50.224 155.032 50.352 155.544C50.736 157.4 51.248 159.256 51.888 161.112C52.528 162.968 53.264 164.696 54.096 166.296C54.8 167.704 56.496 168.984 59.184 170.136C61.872 171.288 65.104 171.864 68.88 171.864ZM122.566 176.664C119.302 176.664 116.198 176.152 113.254 175.128C110.374 174.168 107.846 172.696 105.67 170.712C103.494 168.664 101.766 166.104 100.486 163.032C99.2698 159.96 98.6618 156.312 98.6618 152.088C98.6618 148.248 99.2698 144.824 100.486 141.816C101.702 138.808 103.366 136.28 105.478 134.232C107.654 132.184 110.182 130.648 113.062 129.624C116.006 128.536 119.174 127.992 122.566 127.992C125.894 127.992 128.998 128.536 131.878 129.624C134.822 130.648 137.382 132.184 139.558 134.232C141.67 136.28 143.334 138.808 144.55 141.816C145.83 144.824 146.47 148.248 146.47 152.088C146.47 156.312 145.83 159.96 144.55 163.032C143.27 166.104 141.542 168.664 139.366 170.712C137.19 172.696 134.63 174.168 131.686 175.128C128.806 176.152 125.766 176.664 122.566 176.664ZM122.566 132.216C117.766 132.216 114.022 133.88 111.334 137.208C108.71 140.536 107.398 145.464 107.398 151.992C107.398 154.936 107.75 157.656 108.454 160.152C109.158 162.648 110.182 164.824 111.526 166.68C112.87 168.472 114.47 169.88 116.326 170.904C118.182 171.928 120.262 172.44 122.566 172.44C124.806 172.44 126.854 171.928 128.71 170.904C130.566 169.88 132.166 168.472 133.51 166.68C134.854 164.824 135.878 162.648 136.582 160.152C137.35 157.656 137.734 154.936 137.734 151.992C137.734 145.464 136.39 140.536 133.702 137.208C131.014 133.88 127.302 132.216 122.566 132.216ZM164.739 140.376C164.739 139.8 164.579 139.32 164.259 138.936C164.003 138.488 163.651 138.136 163.203 137.88C162.755 137.688 162.211 137.528 161.571 137.4C160.995 137.208 160.419 137.016 159.843 136.824C159.331 136.824 158.915 136.76 158.595 136.632C158.339 136.44 158.211 136.056 158.211 135.48C158.211 135.224 158.211 135.032 158.211 134.904C158.275 134.712 158.371 134.552 158.499 134.424C158.627 134.36 158.755 134.296 158.883 134.232C159.075 134.168 159.331 134.072 159.651 133.944C161.507 133.56 163.267 133.048 164.931 132.408C166.659 131.768 168.355 130.968 170.019 130.008C170.595 129.624 171.139 129.528 171.651 129.72C172.163 129.912 172.387 130.392 172.323 131.16C172.131 132.696 172.035 134.456 172.035 136.44C172.035 138.424 172.035 139.896 172.035 140.856V167.736C172.035 169.272 172.163 170.392 172.419 171.096C172.739 171.8 173.283 172.248 174.051 172.44C174.627 172.632 175.331 172.792 176.163 172.92C176.995 173.112 177.763 173.208 178.467 173.208C178.979 173.272 179.363 173.4 179.619 173.592C179.875 173.848 180.003 174.296 180.003 174.936C180.003 175.576 179.811 175.96 179.427 176.088C179.107 176.28 178.723 176.376 178.275 176.376C178.083 176.376 177.507 176.376 176.547 176.376C175.651 176.376 174.627 176.344 173.475 176.28C172.387 176.28 171.331 176.248 170.307 176.184C169.347 176.184 168.707 176.184 168.387 176.184C168.003 176.184 167.299 176.184 166.275 176.184C165.251 176.248 164.195 176.28 163.107 176.28C162.019 176.344 161.027 176.376 160.131 176.376C159.235 176.376 158.691 176.376 158.499 176.376C157.987 176.376 157.571 176.28 157.251 176.088C156.931 175.96 156.771 175.576 156.771 174.936C156.771 174.296 156.867 173.848 157.059 173.592C157.315 173.4 157.731 173.272 158.307 173.208C158.947 173.208 159.683 173.112 160.515 172.92C161.347 172.792 162.083 172.632 162.723 172.44C163.427 172.248 163.939 171.8 164.259 171.096C164.579 170.392 164.739 169.272 164.739 167.736V140.376ZM174.147 117.24C174.147 118.968 173.539 120.408 172.323 121.56C171.107 122.712 169.603 123.288 167.811 123.288C165.955 123.288 164.419 122.712 163.203 121.56C161.987 120.408 161.379 118.968 161.379 117.24C161.379 115.64 161.987 114.264 163.203 113.112C164.419 111.896 165.955 111.288 167.811 111.288C169.603 111.288 171.107 111.896 172.323 113.112C173.539 114.264 174.147 115.64 174.147 117.24ZM201.72 134.808C201.72 135.32 201.848 135.608 202.104 135.672C202.36 135.672 202.616 135.544 202.872 135.288C204.408 133.56 206.36 131.96 208.728 130.488C211.096 128.952 213.816 128.184 216.888 128.184C221.624 128.184 225.4 129.464 228.216 132.024C231.032 134.584 232.44 138.264 232.44 143.064V168.216C232.44 169.432 232.568 170.392 232.824 171.096C233.08 171.8 233.56 172.248 234.264 172.44C234.84 172.696 235.448 172.888 236.088 173.016C236.792 173.144 237.496 173.208 238.2 173.208C238.776 173.272 239.16 173.4 239.352 173.592C239.608 173.848 239.736 174.296 239.736 174.936C239.736 175.576 239.544 175.96 239.16 176.088C238.84 176.28 238.456 176.376 238.008 176.376C237.816 176.376 237.272 176.376 236.376 176.376C235.544 176.376 234.616 176.344 233.592 176.28C232.632 176.28 231.672 176.248 230.712 176.184C229.816 176.184 229.208 176.184 228.888 176.184C228.504 176.184 227.8 176.184 226.776 176.184C225.816 176.248 224.824 176.28 223.8 176.28C222.712 176.344 221.72 176.376 220.824 176.376C219.992 176.376 219.48 176.376 219.288 176.376C218.776 176.376 218.36 176.28 218.04 176.088C217.784 175.96 217.656 175.576 217.656 174.936C217.656 174.296 217.752 173.848 217.944 173.592C218.136 173.4 218.52 173.272 219.096 173.208C219.864 173.208 220.536 173.144 221.112 173.016C221.752 172.952 222.424 172.792 223.128 172.536C223.896 172.344 224.44 171.896 224.76 171.192C225.08 170.488 225.24 169.528 225.24 168.312V145.56C225.24 141.4 224.28 138.392 222.36 136.536C220.44 134.68 217.56 133.752 213.72 133.752C211.032 133.752 208.664 134.52 206.616 136.056C204.568 137.528 202.968 139.416 201.816 141.72C201.624 142.104 201.496 142.488 201.432 142.872C201.432 143.256 201.432 143.704 201.432 144.216V168.312C201.432 169.528 201.592 170.456 201.912 171.096C202.232 171.8 202.776 172.248 203.544 172.44C204.184 172.696 204.792 172.888 205.368 173.016C206.008 173.144 206.744 173.208 207.576 173.208C208.088 173.272 208.44 173.4 208.632 173.592C208.888 173.848 209.016 174.296 209.016 174.936C209.016 175.576 208.856 175.96 208.536 176.088C208.216 176.28 207.832 176.376 207.384 176.376C207.128 176.376 206.552 176.376 205.656 176.376C204.76 176.376 203.8 176.344 202.776 176.28C201.688 176.28 200.664 176.248 199.704 176.184C198.744 176.184 198.072 176.184 197.688 176.184C197.304 176.184 196.632 176.184 195.672 176.184C194.776 176.248 193.816 176.28 192.792 176.28C191.768 176.344 190.808 176.376 189.912 176.376C189.08 176.376 188.568 176.376 188.376 176.376C187.864 176.376 187.448 176.28 187.128 176.088C186.808 175.96 186.648 175.576 186.648 174.936C186.648 174.296 186.744 173.848 186.936 173.592C187.192 173.4 187.608 173.272 188.184 173.208C188.824 173.208 189.528 173.144 190.296 173.016C191.064 172.888 191.768 172.696 192.408 172.44C193.048 172.248 193.528 171.8 193.848 171.096C194.168 170.392 194.328 169.432 194.328 168.216V139.8C194.328 138.584 193.816 137.784 192.792 137.4C191.832 136.952 190.744 136.6 189.528 136.344C189.272 136.344 189.048 136.312 188.856 136.248C188.664 136.184 188.472 136.12 188.28 136.056C188.152 135.928 188.056 135.8 187.992 135.672C187.928 135.544 187.896 135.32 187.896 135C187.896 134.744 187.896 134.52 187.896 134.328C187.96 134.136 188.056 133.976 188.184 133.848C188.312 133.784 188.44 133.72 188.568 133.656C188.76 133.592 189.016 133.496 189.336 133.368C191.192 132.984 192.952 132.504 194.616 131.928C196.344 131.288 198.04 130.488 199.704 129.528C200.28 129.144 200.824 129.048 201.336 129.24C201.848 129.432 202.072 129.912 202.008 130.68C201.88 131.448 201.784 132.184 201.72 132.888C201.72 133.592 201.72 134.232 201.72 134.808Z" fill="white"/>
</g>
<defs>
<clipPath id="clip0_1_3">
<rect width="285" height="288" fill="white"/>
</clipPath>
</defs>
</svg>
